<svg width="413" height="400" viewBox="0 0 413 400" fill="none" xmlns="http://www.w3.org/2000/svg">
<g clip-path="url(#clip0)">
<path d="M206.5 400.009C320.547 400.009 413 346.695 413 280.93C413 215.164 320.547 161.851 206.5 161.851C92.4532 161.851 0 215.164 0 280.93C0 346.695 92.4532 400.009 206.5 400.009Z" fill="#F0F0F0"/>
<path d="M325.092 322.239C311.551 314.431 311.551 301.773 325.092 293.964C338.633 286.156 360.588 286.156 374.13 293.964C387.671 301.773 387.671 314.431 374.13 322.239C360.588 330.048 338.633 330.048 325.092 322.239Z" fill="#E0E0E0"/>
<path d="M49.6771 323.325L14.0582 302.788C12.0512 301.633 12.0512 299.751 14.0582 298.595L221.242 179.122C222.368 178.552 223.612 178.255 224.875 178.255C226.137 178.255 227.382 178.552 228.508 179.122L264.135 199.659C266.142 200.814 266.142 202.696 264.135 203.852L56.9516 323.325C55.8241 323.895 54.5781 324.192 53.3143 324.192C52.0506 324.192 50.8046 323.895 49.6771 323.325Z" fill="#E0E0E0"/>
<path d="M177.709 286.716L208.332 269.033C211.487 267.212 213.065 264.831 213.065 262.441C213.065 260.052 213.065 258.187 213.065 258.187L181.302 240.294C180.415 239.721 179.676 238.946 179.146 238.034C178.616 237.121 178.31 236.095 178.252 235.042V197.321L124.789 228.187V265.89C124.85 266.943 125.158 267.967 125.688 268.879C126.218 269.791 126.954 270.567 127.839 271.143L154.868 286.69C161.161 290.358 171.398 290.358 177.709 286.716Z" fill="#3A49CD"/>
<g opacity="0.6">
<path opacity="0.6" d="M177.709 286.716L208.332 269.033C211.487 267.212 213.065 264.831 213.065 262.441C213.065 260.052 213.065 258.187 213.065 258.187L181.302 240.294C180.415 239.721 179.676 238.946 179.146 238.034C178.616 237.121 178.31 236.095 178.252 235.042V197.321L124.789 228.187V265.89C124.85 266.943 125.158 267.967 125.688 268.879C126.218 269.791 126.954 270.567 127.839 271.143L154.868 286.69C161.161 290.358 171.398 290.358 177.709 286.716Z" fill="black"/>
</g>
<path opacity="0.3" d="M137.611 272.57V276.807L127.812 271.16C126.928 270.585 126.192 269.809 125.664 268.897C125.136 267.984 124.83 266.961 124.771 265.908V228.188L134.956 222.314C135.166 224.896 135.394 227.566 135.613 230.192L128.452 234.307V263.763C128.509 264.817 128.815 265.843 129.345 266.756C129.875 267.669 130.615 268.443 131.502 269.016L137.611 272.57Z" fill="black"/>
<path d="M128.452 263.772C128.513 264.825 128.82 265.849 129.35 266.762C129.88 267.674 130.617 268.449 131.502 269.024L154.833 282.453C161.144 286.086 171.381 286.094 177.7 282.453L208.376 264.77C214.695 261.128 214.695 255.228 208.376 251.587L185.027 238.158C184.144 237.582 183.409 236.806 182.88 235.894C182.352 234.981 182.046 233.958 181.986 232.906V203.44L128.522 234.306L128.452 263.772Z" fill="#3A49CD"/>
<path opacity="0.3" d="M128.452 263.772C128.513 264.825 128.82 265.849 129.35 266.762C129.88 267.674 130.617 268.449 131.502 269.024L154.833 282.453C161.144 286.086 171.381 286.094 177.7 282.453L208.376 264.77C214.695 261.128 214.695 255.228 208.376 251.587L185.027 238.158C184.144 237.582 183.409 236.806 182.88 235.894C182.352 234.981 182.046 233.958 181.986 232.906V203.44L128.522 234.306L128.452 263.772Z" fill="black"/>
<path opacity="0.5" d="M191.206 241.756L184.992 238.176C184.109 237.599 183.374 236.823 182.845 235.911C182.317 234.999 182.011 233.976 181.951 232.923V203.44L128.487 234.306V263.772C128.548 264.825 128.855 265.849 129.385 266.762C129.915 267.674 130.652 268.449 131.537 269.024L137.673 272.526L191.206 241.756Z" fill="black"/>
<path d="M213.073 258.196V262.45C213.073 264.84 211.487 267.212 208.341 269.042L177.665 286.716C174.308 288.506 170.558 289.435 166.753 289.421V285.184C170.558 285.198 174.308 284.269 177.665 282.479L208.341 264.787C211.487 262.975 213.073 260.586 213.073 258.196Z" fill="#3A49CD"/>
<path opacity="0.5" d="M213.073 258.196V262.45C213.073 264.84 211.487 267.212 208.341 269.042L177.665 286.716C174.308 288.506 170.558 289.435 166.753 289.421V285.184C170.558 285.198 174.308 284.269 177.665 282.479L208.341 264.787C211.487 262.975 213.073 260.586 213.073 258.196Z" fill="black"/>
<path d="M42.5604 300.39C43.7161 300.947 44.9869 301.226 46.2702 301.203C47.5536 301.18 48.8136 300.857 49.9488 300.258L256.791 180.987C257.9 180.264 258.823 179.291 259.485 178.146C260.148 177 260.531 175.715 260.603 174.395V7.26576C260.564 5.98101 260.221 4.72379 259.602 3.59655C258.984 2.46931 258.108 1.50394 257.045 0.779129C255.89 0.220942 254.62 -0.0572915 253.338 -0.0329542C252.056 -0.00861683 250.797 0.317604 249.665 0.919191L42.8233 120.226C41.7181 120.953 40.8006 121.931 40.1456 123.079C39.4907 124.228 39.1168 125.515 39.0546 126.835V293.938C39.0937 295.212 39.4312 296.459 40.04 297.58C40.6488 298.7 41.512 299.663 42.5604 300.39Z" fill="#3A49CD"/>
<path d="M49.9751 300.25L256.817 180.978C257.927 180.257 258.852 179.284 259.514 178.138C260.177 176.993 260.559 175.707 260.629 174.386V7.26578C260.629 4.84096 258.92 3.85177 256.817 5.06856L49.9751 124.34C48.8655 125.062 47.942 126.035 47.2796 127.181C46.6172 128.326 46.2345 129.611 46.1625 130.932V298.052C46.1625 300.477 47.8716 301.466 49.9751 300.25Z" fill="#3A49CD"/>
<path opacity="0.5" d="M49.9751 300.25L256.817 180.978C257.927 180.257 258.852 179.284 259.514 178.138C260.177 176.993 260.559 175.707 260.629 174.386V7.26578C260.629 4.84096 258.92 3.85177 256.817 5.06856L49.9751 124.34C48.8655 125.062 47.942 126.035 47.2796 127.181C46.6172 128.326 46.2345 129.611 46.1625 130.932V298.052C46.1625 300.477 47.8716 301.466 49.9751 300.25Z" fill="black"/>
<path d="M49.4142 304.592C48.3295 305.064 47.1551 305.297 45.9719 305.273C44.7887 305.248 43.6247 304.968 42.5604 304.451C41.5097 303.723 40.645 302.758 40.0361 301.634C39.4271 300.51 39.0909 299.26 39.0546 297.982V282.768L46.1976 286.9V302.114C46.1538 304.329 47.5649 305.336 49.4142 304.592Z" fill="#3A49CD"/>
<path opacity="0.5" d="M49.4142 304.592C48.3295 305.064 47.1551 305.297 45.9719 305.273C44.7887 305.248 43.6247 304.968 42.5604 304.451C41.5097 303.723 40.645 302.758 40.0361 301.634C39.4271 300.51 39.0909 299.26 39.0546 297.982V282.768L46.1976 286.9V302.114C46.1538 304.329 47.5649 305.336 49.4142 304.592Z" fill="black"/>
<path d="M46.1538 286.9V302.114C46.1538 304.539 47.9067 305.519 49.9664 304.311L256.808 185.04C257.913 184.321 258.833 183.353 259.495 182.214C260.157 181.075 260.543 179.798 260.621 178.483V163.199L46.1538 286.9Z" fill="#3A49CD"/>
<path opacity="0.3" d="M46.1625 286.865V302.114C46.1625 304.539 47.9154 305.519 49.9751 304.311L256.817 185.04C257.92 184.32 258.838 183.351 259.499 182.213C260.159 181.074 260.544 179.797 260.621 178.483V163.199L46.1625 286.865Z" fill="black"/>
<path d="M53.3056 267.773V133.304C53.3464 132.512 53.5741 131.741 53.9701 131.053C54.3661 130.365 54.9192 129.781 55.5844 129.347L251.155 16.5361C252.417 15.8095 253.443 16.396 253.443 17.8492V152.388C253.4 153.18 253.171 153.952 252.773 154.64C252.376 155.327 251.821 155.911 251.155 156.344L55.5931 269.129C54.331 269.856 53.3056 269.261 53.3056 267.773Z" fill="#3A49CD"/>
<path d="M53.3056 267.773V133.304C53.3464 132.512 53.5741 131.741 53.9701 131.053C54.3661 130.365 54.9192 129.781 55.5844 129.347L251.155 16.5361C252.417 15.8095 253.443 16.396 253.443 17.8492V152.388C253.4 153.18 253.171 153.952 252.773 154.64C252.376 155.327 251.821 155.911 251.155 156.344L55.5931 269.129C54.331 269.856 53.3056 269.261 53.3056 267.773Z" fill="#263238"/>
<path d="M153.387 229.895C152.346 230.571 151.48 231.483 150.858 232.557C150.237 233.631 149.878 234.836 149.811 236.075C149.811 238.351 151.415 239.279 153.387 238.141C154.429 237.464 155.297 236.55 155.918 235.474C156.54 234.399 156.898 233.192 156.963 231.952C156.963 229.676 155.359 228.757 153.387 229.895Z" fill="#3A49CD"/>
<path opacity="0.7" d="M47.2844 127.168C46.6052 128.308 46.2169 129.598 46.1538 130.923V286.9L39.0546 282.768V126.835C39.1006 125.505 39.4868 124.209 40.1764 123.071L47.2844 127.168Z" fill="black"/>
<path opacity="0.3" d="M260.586 6.63547C260.314 4.6746 258.728 4.00931 256.808 5.06853L49.9664 124.34C48.8449 125.041 47.9192 126.013 47.2757 127.168L40.1238 123.045C40.7717 121.891 41.7001 120.918 42.8233 120.217L249.665 0.954199C250.799 0.35253 252.059 0.0262928 253.343 0.0019576C254.626 -0.0223776 255.898 0.255874 257.054 0.814137C258.025 1.47537 258.843 2.33728 259.453 3.34158C260.062 4.34588 260.448 5.46916 260.586 6.63547Z" fill="black"/>
<path d="M271.743 27.2071C271.436 27.0532 271.093 26.9857 270.75 27.0119C270.407 27.0381 270.078 27.157 269.798 27.356L74.6301 139.966C73.86 140.475 73.2207 141.158 72.7639 141.959C72.3071 142.76 72.0457 143.658 72.0008 144.579V278.225C71.9734 278.676 72.0631 279.127 72.2612 279.533C72.4593 279.939 72.759 280.288 73.1314 280.545C73.5609 280.781 75.8571 282.112 76.5408 282.479C76.7827 282.602 77.0529 282.659 77.3239 282.644C77.5949 282.628 77.857 282.541 78.0833 282.392L273.207 169.782C273.977 169.273 274.616 168.59 275.073 167.789C275.53 166.987 275.791 166.089 275.836 165.168V30.8313C275.876 30.4918 275.819 30.1481 275.674 29.8389C275.528 29.5296 275.299 29.267 275.013 29.0805C274.574 28.7916 272.234 27.496 271.743 27.2071Z" fill="#3A49CD"/>
<path d="M77.1625 282.208C76.4175 282.208 75.804 281.289 75.804 280.159V146.47C75.8563 145.622 76.1052 144.798 76.5311 144.063C76.957 143.327 77.5482 142.701 78.2581 142.233L273.434 29.6669C273.726 29.482 274.062 29.3764 274.407 29.3605C275.056 29.3605 275.441 29.912 275.441 30.8311V165.168C275.387 166.015 275.139 166.837 274.715 167.572C274.291 168.307 273.702 168.934 272.996 169.405L77.8198 282.006C77.6223 282.13 77.3956 282.2 77.1625 282.208Z" fill="#FAFAFA"/>
<path d="M274.407 29.7982C274.924 29.7982 275.003 30.446 275.003 30.8312V165.168C274.956 165.94 274.729 166.689 274.341 167.358C273.954 168.027 273.415 168.596 272.768 169.02L77.6183 281.63C77.4873 281.715 77.336 281.763 77.18 281.77C76.6892 281.77 76.3036 281.017 76.3036 280.159V146.47C76.3459 145.699 76.5656 144.948 76.9456 144.275C77.3256 143.603 77.8557 143.027 78.4947 142.592L273.654 30.0521C273.877 29.9012 274.138 29.8135 274.407 29.7982ZM274.407 28.9229C273.985 28.9408 273.574 29.0675 273.215 29.2905L78.039 141.857C77.2698 142.367 76.6312 143.05 76.1746 143.851C75.7179 144.652 75.4559 145.549 75.4096 146.47V280.159C75.4096 281.507 76.1634 282.645 77.1625 282.645C77.472 282.64 77.7744 282.552 78.039 282.392L273.206 169.782C273.977 169.273 274.616 168.59 275.073 167.789C275.529 166.987 275.791 166.089 275.836 165.168V30.8312C275.836 29.6232 275.24 28.9229 274.363 28.9229H274.407Z" fill="#E0E0E0"/>
<path d="M73.0782 280.544C73.3675 280.693 75.4447 281.875 76.3562 282.4C76.0289 282.129 75.7696 281.785 75.5992 281.396C75.4287 281.007 75.3518 280.583 75.3745 280.159V155.198L71.9564 153.202V278.225C71.9281 278.675 72.0165 279.125 72.213 279.531C72.4095 279.938 72.7075 280.287 73.0782 280.544Z" fill="#F0F0F0"/>
<path d="M275.88 30.8049C275.88 29.1241 274.679 28.4413 273.25 29.2904L78.039 141.857C77.2698 142.366 76.6312 143.049 76.1746 143.851C75.7179 144.652 75.4559 145.549 75.4096 146.47V155.224L275.88 39.5588V30.8049Z" fill="#3A49CD"/>
<g opacity="0.4">
<path opacity="0.4" d="M273.215 29.2905L78.0389 141.848C77.2556 142.341 76.6103 143.025 76.1633 143.835L72.7715 141.865C73.2177 141.084 73.8575 140.43 74.6296 139.966L269.797 27.3559C270.076 27.1556 270.405 27.035 270.748 27.0073C271.091 26.9795 271.435 27.0456 271.743 27.1983C272.216 27.4959 274.433 28.7477 275.003 29.0541C274.708 28.945 274.391 28.9094 274.08 28.9506C273.768 28.9918 273.471 29.1085 273.215 29.2905Z" fill="white"/>
</g>
<path opacity="0.15" d="M71.9564 153.211V144.535C71.9924 143.59 72.2733 142.67 72.7715 141.865L76.1721 143.826C75.681 144.617 75.406 145.523 75.3746 146.453V155.206L71.9564 153.211Z" fill="black"/>
<path d="M234.722 131.58L117.83 198.985C117.261 199.353 116.788 199.85 116.448 200.436C116.109 201.022 115.912 201.679 115.875 202.355V235.83C115.912 236.505 116.109 237.163 116.448 237.749C116.788 238.334 117.261 238.832 117.83 239.2L121.239 241.161C121.845 241.467 122.515 241.626 123.194 241.626C123.873 241.626 124.542 241.467 125.148 241.161L242.022 173.756C242.591 173.386 243.064 172.887 243.404 172.3C243.744 171.713 243.94 171.054 243.977 170.377V136.893C243.94 136.217 243.743 135.56 243.404 134.974C243.064 134.389 242.591 133.891 242.022 133.523L238.604 131.562C238.001 131.261 237.335 131.106 236.661 131.109C235.986 131.112 235.322 131.273 234.722 131.58Z" fill="#3A49CD"/>
<path opacity="0.5" d="M243.977 136.596C243.837 135.589 243.022 135.221 242.04 135.79L125.148 203.195C124.572 203.553 124.098 204.053 123.772 204.648L116.454 200.429C116.782 199.843 117.252 199.35 117.821 198.993L234.722 131.588C235.326 131.282 235.994 131.122 236.672 131.122C237.349 131.122 238.018 131.282 238.622 131.588L242.04 133.549C242.561 133.89 243.003 134.338 243.337 134.864C243.671 135.389 243.889 135.979 243.977 136.596Z" fill="white"/>
<path d="M124.815 241.327C124.243 241.552 123.629 241.655 123.015 241.628C122.4 241.601 121.798 241.444 121.248 241.17L117.83 239.209C117.262 238.839 116.79 238.342 116.45 237.756C116.111 237.171 115.914 236.514 115.875 235.838V202.364C115.902 201.68 116.101 201.015 116.454 200.429L123.772 204.648C123.416 205.227 123.217 205.887 123.194 206.565V240.049C123.194 241.161 123.895 241.677 124.815 241.327Z" fill="#263238"/>
<path d="M125.148 203.195L242.04 135.79C243.118 135.169 243.994 135.668 243.994 136.911V170.394C243.957 171.071 243.761 171.73 243.421 172.317C243.082 172.904 242.609 173.403 242.04 173.773L125.166 241.178C124.088 241.8 123.211 241.292 123.211 240.049V206.574C123.246 205.899 123.44 205.241 123.776 204.654C124.113 204.067 124.583 203.567 125.148 203.195Z" fill="#3A49CD"/>
<path d="M203.73 149.455L117.838 198.993C117.269 199.35 116.799 199.843 116.471 200.429L123.79 204.648C124.115 204.054 124.589 203.553 125.166 203.195L211.058 153.666L203.73 149.455Z" fill="#455A64"/>
<path d="M211.04 153.666L125.148 203.195C124.579 203.565 124.106 204.064 123.767 204.651C123.427 205.238 123.231 205.897 123.194 206.574V240.04C123.194 241.283 124.07 241.791 125.148 241.169L211.04 191.64V153.666Z" fill="#37474F"/>
<path d="M144.956 199.116L189.278 173.563C191.11 172.504 192.599 173.257 192.599 175.244C192.518 176.36 192.173 177.441 191.595 178.399C191.016 179.358 190.219 180.166 189.269 180.759L144.956 206.32C143.124 207.38 141.625 206.627 141.625 204.64C141.708 203.523 142.052 202.441 142.631 201.481C143.21 200.522 144.006 199.711 144.956 199.116Z" fill="#3A49CD"/>
<path d="M154.036 207.581C154.044 207.572 154.054 207.564 154.065 207.559C154.077 207.554 154.089 207.551 154.102 207.551C154.114 207.551 154.126 207.554 154.138 207.559C154.149 207.564 154.159 207.572 154.167 207.581C154.206 207.64 154.225 207.711 154.22 207.782V212.763C154.22 213.244 154.179 213.725 154.097 214.199C154.025 214.632 153.901 215.055 153.729 215.459C153.572 215.83 153.366 216.177 153.116 216.492C152.869 216.785 152.572 217.031 152.239 217.219C151.978 217.389 151.674 217.48 151.363 217.482C151.244 217.472 151.128 217.439 151.022 217.383C150.917 217.327 150.824 217.251 150.749 217.158C150.557 216.9 150.43 216.6 150.381 216.282C150.297 215.859 150.259 215.427 150.267 214.995V210.006C150.267 209.918 150.285 209.832 150.32 209.752C150.341 209.68 150.388 209.618 150.451 209.577L151.003 209.253C151.021 209.236 151.045 209.227 151.069 209.227C151.093 209.227 151.117 209.236 151.135 209.253C151.175 209.312 151.194 209.383 151.187 209.454V214.374C151.181 214.645 151.207 214.915 151.266 215.179C151.29 215.348 151.364 215.506 151.477 215.634C151.516 215.681 151.566 215.718 151.622 215.743C151.678 215.767 151.74 215.778 151.801 215.775C151.951 215.765 152.096 215.716 152.222 215.634C152.377 215.541 152.519 215.426 152.642 215.293C152.779 215.136 152.891 214.959 152.975 214.768C153.074 214.543 153.148 214.308 153.194 214.068C153.246 213.779 153.269 213.485 153.265 213.192V208.264C153.267 208.176 153.288 208.089 153.326 208.01C153.347 207.938 153.394 207.876 153.457 207.835L154.036 207.581Z" fill="#FAFAFA"/>
<path d="M157.471 212.29C157.476 212.226 157.461 212.162 157.428 212.107C157.407 212.084 157.381 212.066 157.352 212.056C157.323 212.045 157.292 212.041 157.261 212.045C157.153 212.031 157.044 212.031 156.937 212.045L156.428 212.142C156.264 212.182 156.093 212.182 155.929 212.142C155.8 212.1 155.689 212.017 155.613 211.905C155.528 211.763 155.471 211.605 155.447 211.441C155.361 210.972 155.361 210.492 155.447 210.023C155.513 209.754 155.607 209.493 155.727 209.244C155.847 208.995 155.994 208.76 156.166 208.544C156.331 208.337 156.533 208.162 156.762 208.027C156.944 207.911 157.151 207.839 157.366 207.817C157.522 207.801 157.678 207.835 157.813 207.913C157.942 207.992 158.043 208.108 158.102 208.246C158.173 208.409 158.212 208.585 158.216 208.763C158.226 208.851 158.207 208.939 158.164 209.016C158.142 209.089 158.096 209.151 158.032 209.191L157.506 209.498C157.483 209.512 157.455 209.519 157.428 209.519C157.4 209.519 157.373 209.512 157.349 209.498L157.235 209.41C157.19 209.375 157.135 209.353 157.077 209.349C156.964 209.362 156.856 209.401 156.762 209.463C156.624 209.546 156.502 209.652 156.402 209.778C156.296 209.916 156.24 210.086 156.244 210.259C156.232 210.326 156.232 210.394 156.244 210.461C156.261 210.486 156.283 210.506 156.309 210.521C156.335 210.536 156.364 210.546 156.393 210.548C156.489 210.564 156.587 210.564 156.683 210.548L157.173 210.461C157.585 210.382 157.866 210.461 158.05 210.688C158.243 211.013 158.332 211.389 158.304 211.765C158.302 212.025 158.266 212.284 158.199 212.535C158.13 212.808 158.03 213.073 157.901 213.323C157.772 213.583 157.61 213.824 157.419 214.041C157.237 214.254 157.021 214.434 156.779 214.575C156.586 214.698 156.367 214.773 156.139 214.794C155.974 214.8 155.812 214.754 155.675 214.663C155.539 214.57 155.435 214.439 155.377 214.286C155.306 214.12 155.27 213.941 155.272 213.761C155.263 213.67 155.282 213.579 155.324 213.498C155.346 213.426 155.392 213.364 155.456 213.323L155.981 213.017C156.052 213.017 156.104 212.973 156.139 213.017L156.253 213.14C156.276 213.166 156.305 213.187 156.336 213.202C156.368 213.217 156.402 213.225 156.437 213.227C156.561 213.228 156.681 213.188 156.779 213.113C156.937 213.024 157.079 212.908 157.2 212.772C157.259 212.7 157.309 212.62 157.349 212.535C157.411 212.466 157.453 212.381 157.471 212.29Z" fill="#FAFAFA"/>
<path d="M159.259 209.918C159.258 209.463 159.296 209.009 159.373 208.561C159.447 208.14 159.561 207.726 159.715 207.327C159.844 206.969 160.021 206.63 160.241 206.32C160.425 206.054 160.664 205.83 160.942 205.664C161.145 205.527 161.393 205.474 161.635 205.515C161.849 205.564 162.036 205.693 162.16 205.874C162.325 206.111 162.442 206.379 162.502 206.662C162.586 207.029 162.628 207.405 162.625 207.782V208.325C162.628 208.416 162.607 208.507 162.564 208.587C162.542 208.66 162.496 208.722 162.432 208.763L160.153 210.084C160.148 210.238 160.169 210.392 160.215 210.54C160.249 210.639 160.309 210.727 160.39 210.793C160.462 210.85 160.553 210.879 160.644 210.872C160.75 210.86 160.852 210.824 160.942 210.767C161.075 210.695 161.194 210.6 161.293 210.487C161.382 210.386 161.459 210.274 161.521 210.154C161.558 210.085 161.599 210.018 161.643 209.953C161.681 209.909 161.725 209.87 161.775 209.839L162.318 209.524C162.337 209.509 162.36 209.501 162.384 209.501C162.408 209.501 162.431 209.509 162.45 209.524C162.473 209.552 162.489 209.584 162.498 209.619C162.508 209.654 162.509 209.69 162.502 209.725C162.493 209.896 162.457 210.064 162.397 210.224C162.322 210.467 162.222 210.702 162.099 210.925C161.962 211.181 161.797 211.422 161.608 211.643C161.42 211.868 161.195 212.06 160.942 212.212C160.735 212.347 160.487 212.406 160.241 212.378C160.026 212.326 159.838 212.195 159.715 212.01C159.543 211.745 159.426 211.447 159.373 211.135C159.294 210.734 159.256 210.326 159.259 209.918ZM160.942 207.126C160.807 207.198 160.691 207.3 160.6 207.423C160.503 207.546 160.424 207.681 160.364 207.826C160.302 207.971 160.253 208.12 160.215 208.272C160.184 208.411 160.163 208.551 160.153 208.693L161.696 207.817C161.687 207.696 161.669 207.576 161.643 207.458C161.63 207.352 161.587 207.252 161.521 207.169C161.494 207.132 161.461 207.1 161.421 207.075C161.382 207.051 161.338 207.036 161.293 207.029C161.168 207.019 161.044 207.053 160.942 207.126Z" fill="#FAFAFA"/>
<path d="M165.377 204.683C165.111 204.835 164.902 205.068 164.781 205.349C164.645 205.718 164.582 206.111 164.597 206.504V209.664C164.598 209.755 164.58 209.844 164.544 209.927C164.523 209.999 164.476 210.061 164.413 210.102L163.896 210.4C163.888 210.409 163.877 210.416 163.866 210.422C163.855 210.427 163.843 210.429 163.83 210.429C163.818 210.429 163.805 210.427 163.794 210.422C163.783 210.416 163.773 210.409 163.764 210.4C163.725 210.34 163.707 210.269 163.712 210.198V204.535C163.712 204.444 163.73 204.355 163.764 204.272C163.789 204.201 163.835 204.14 163.896 204.097L164.413 203.799C164.431 203.783 164.454 203.773 164.479 203.773C164.503 203.773 164.527 203.783 164.544 203.799C164.585 203.855 164.604 203.923 164.597 203.992V204.272C164.701 204.037 164.831 203.814 164.983 203.607C165.121 203.415 165.301 203.256 165.509 203.143L165.824 202.959C165.84 202.943 165.862 202.934 165.885 202.934C165.908 202.934 165.93 202.943 165.947 202.959C165.989 203.017 166.011 203.088 166.008 203.16V203.957C166.007 204.048 165.986 204.137 165.947 204.219C165.925 204.289 165.882 204.35 165.824 204.394L165.377 204.683Z" fill="#FAFAFA"/>
<path d="M171.915 204.263C171.924 204.254 171.934 204.246 171.945 204.241C171.956 204.236 171.969 204.233 171.981 204.233C171.993 204.233 172.006 204.236 172.017 204.241C172.028 204.246 172.039 204.254 172.047 204.263C172.086 204.323 172.104 204.393 172.099 204.464V205.34C172.099 205.43 172.081 205.519 172.047 205.602C172.017 205.667 171.972 205.724 171.915 205.769L168.918 207.52C168.9 207.536 168.877 207.545 168.852 207.545C168.828 207.545 168.804 207.536 168.786 207.52C168.747 207.463 168.729 207.395 168.734 207.327V199.449C168.734 199.358 168.752 199.269 168.786 199.186C168.811 199.118 168.857 199.059 168.918 199.02L169.47 198.696C169.488 198.679 169.511 198.67 169.536 198.67C169.56 198.67 169.584 198.679 169.601 198.696C169.641 198.752 169.659 198.82 169.654 198.888V205.55L171.915 204.263Z" fill="#FAFAFA"/>
<path d="M174.606 197.785C174.803 197.649 175.042 197.584 175.281 197.601C175.486 197.618 175.677 197.712 175.816 197.864C175.979 198.051 176.099 198.273 176.166 198.512C176.26 198.822 176.313 199.142 176.324 199.466C176.324 199.536 176.324 199.632 176.324 199.746V200.42C176.324 200.525 176.324 200.622 176.324 200.7C176.307 201.081 176.254 201.459 176.166 201.83C176.085 202.191 175.968 202.543 175.816 202.88C175.677 203.194 175.497 203.488 175.281 203.755C175.096 203.997 174.867 204.202 174.606 204.359C174.403 204.491 174.164 204.555 173.922 204.543C173.72 204.526 173.532 204.432 173.397 204.281C173.228 204.1 173.108 203.88 173.046 203.642C172.952 203.332 172.899 203.011 172.888 202.687C172.888 202.617 172.888 202.53 172.888 202.416V201.742C172.888 201.628 172.888 201.532 172.888 201.462C172.898 201.078 172.948 200.697 173.037 200.324C173.122 199.96 173.243 199.605 173.397 199.265C173.536 198.953 173.712 198.659 173.922 198.389C174.108 198.145 174.341 197.94 174.606 197.785ZM175.43 200.044C175.429 199.85 175.397 199.658 175.333 199.475C175.301 199.363 175.233 199.265 175.141 199.195C175.066 199.145 174.976 199.123 174.886 199.133C174.786 199.152 174.691 199.191 174.606 199.247C174.503 199.304 174.409 199.374 174.326 199.457C174.225 199.562 174.14 199.679 174.071 199.807C173.983 199.967 173.918 200.138 173.879 200.315C173.821 200.539 173.786 200.767 173.773 200.998C173.773 201.068 173.773 201.147 173.773 201.243V201.865C173.773 201.961 173.773 202.04 173.773 202.092C173.782 202.286 173.817 202.477 173.879 202.661C173.911 202.773 173.978 202.871 174.071 202.941C174.108 202.967 174.149 202.985 174.193 202.994C174.237 203.003 174.282 203.003 174.326 202.994C174.425 202.977 174.52 202.941 174.606 202.889C174.708 202.83 174.802 202.76 174.886 202.679C174.984 202.572 175.07 202.455 175.141 202.329C175.225 202.168 175.29 201.997 175.333 201.821C175.391 201.597 175.423 201.368 175.43 201.138C175.435 201.056 175.435 200.975 175.43 200.893V200.28C175.435 200.201 175.435 200.122 175.43 200.044Z" fill="#FAFAFA"/>
<path d="M179.006 202.906C179.118 202.838 179.218 202.752 179.304 202.652C179.409 202.529 179.5 202.394 179.575 202.25C179.663 202.074 179.73 201.889 179.777 201.698C179.831 201.484 179.857 201.263 179.856 201.042V200.595C179.856 200.683 179.768 200.788 179.707 200.91C179.647 201.038 179.577 201.161 179.497 201.278C179.405 201.401 179.305 201.518 179.199 201.628C179.089 201.743 178.962 201.841 178.822 201.917C178.732 201.978 178.63 202.021 178.523 202.042C178.416 202.063 178.306 202.062 178.199 202.04C178.005 201.979 177.837 201.852 177.726 201.681C177.583 201.455 177.48 201.206 177.419 200.945C177.345 200.615 177.304 200.278 177.297 199.939C177.297 199.825 177.297 199.685 177.297 199.519C177.297 199.352 177.297 199.212 177.297 199.09C177.308 198.705 177.349 198.321 177.419 197.943C177.491 197.57 177.594 197.204 177.726 196.849C177.85 196.54 178.009 196.246 178.199 195.973C178.361 195.732 178.573 195.529 178.822 195.378C178.938 195.308 179.066 195.258 179.199 195.229C179.297 195.211 179.398 195.211 179.497 195.229C179.574 195.251 179.646 195.29 179.707 195.343C179.763 195.386 179.813 195.436 179.856 195.492V195.212C179.856 195.122 179.874 195.032 179.909 194.949C179.933 194.881 179.979 194.822 180.04 194.783L180.557 194.476C180.575 194.46 180.598 194.45 180.623 194.45C180.647 194.45 180.671 194.46 180.689 194.476C180.731 194.535 180.752 194.606 180.75 194.678V200.368C180.774 201.22 180.615 202.067 180.285 202.854C180.027 203.472 179.579 203.993 179.006 204.342C178.81 204.463 178.587 204.532 178.357 204.543C178.175 204.554 177.995 204.508 177.84 204.412C177.692 204.301 177.572 204.157 177.49 203.992C177.404 203.792 177.356 203.578 177.349 203.361C177.341 203.271 177.359 203.179 177.402 203.099C177.423 203.027 177.47 202.965 177.533 202.924L177.998 202.661C178.009 202.65 178.021 202.641 178.036 202.634C178.05 202.628 178.066 202.625 178.081 202.625C178.097 202.625 178.112 202.628 178.127 202.634C178.141 202.641 178.154 202.65 178.164 202.661C178.208 202.707 178.246 202.756 178.278 202.81C178.332 202.904 178.42 202.973 178.524 203.003C178.629 203.081 178.787 202.994 179.006 202.906ZM178.182 198.661C178.182 198.894 178.182 199.122 178.182 199.343C178.157 199.693 178.256 200.04 178.462 200.324C178.54 200.391 178.64 200.428 178.743 200.428C178.846 200.428 178.945 200.391 179.023 200.324C179.278 200.159 179.476 199.921 179.593 199.641C179.753 199.276 179.842 198.884 179.856 198.486C179.856 198.354 179.856 198.197 179.856 198.013C179.856 197.829 179.856 197.671 179.856 197.558C179.874 197.244 179.781 196.934 179.593 196.682C179.515 196.611 179.414 196.571 179.308 196.571C179.203 196.571 179.101 196.611 179.023 196.682C178.774 196.847 178.579 197.081 178.462 197.356C178.282 197.768 178.187 198.211 178.182 198.661Z" fill="#FAFAFA"/>
<path d="M182.792 190.887C182.809 190.873 182.831 190.865 182.853 190.865C182.876 190.865 182.897 190.873 182.915 190.887C182.961 190.944 182.983 191.016 182.976 191.089V192.043C182.977 192.134 182.956 192.224 182.915 192.305C182.89 192.371 182.848 192.429 182.792 192.472L182.205 192.813C182.197 192.822 182.186 192.83 182.175 192.835C182.164 192.84 182.152 192.843 182.139 192.843C182.127 192.843 182.114 192.84 182.103 192.835C182.092 192.83 182.082 192.822 182.073 192.813C182.05 192.787 182.033 192.756 182.023 192.723C182.012 192.69 182.008 192.655 182.012 192.621V191.666C182.011 191.575 182.032 191.485 182.073 191.404C182.098 191.335 182.144 191.277 182.205 191.237L182.792 190.887ZM182.941 199.107C182.941 199.194 182.923 199.281 182.888 199.361C182.861 199.43 182.815 199.49 182.757 199.536L182.231 199.834C182.224 199.843 182.214 199.85 182.204 199.855C182.193 199.86 182.182 199.863 182.17 199.863C182.158 199.863 182.146 199.86 182.136 199.855C182.125 199.85 182.116 199.843 182.108 199.834C182.063 199.777 182.041 199.705 182.047 199.632V193.969C182.046 193.877 182.068 193.787 182.108 193.706C182.133 193.638 182.175 193.577 182.231 193.531L182.757 193.233C182.775 193.217 182.798 193.207 182.823 193.207C182.847 193.207 182.871 193.217 182.888 193.233C182.928 193.29 182.946 193.358 182.941 193.426V199.107Z" fill="#FAFAFA"/>
<path d="M187.551 196.437C187.551 196.527 187.533 196.616 187.499 196.7C187.474 196.768 187.428 196.826 187.367 196.866L186.841 197.172C186.825 197.188 186.803 197.197 186.78 197.197C186.757 197.197 186.735 197.188 186.719 197.172C186.673 197.116 186.651 197.044 186.657 196.971V193.89C186.684 193.526 186.618 193.161 186.464 192.831C186.342 192.612 186.149 192.577 185.877 192.734C185.606 192.916 185.405 193.185 185.307 193.496C185.161 193.909 185.09 194.345 185.097 194.783V197.873C185.097 197.963 185.079 198.052 185.045 198.135C185.023 198.208 184.976 198.27 184.913 198.31L184.396 198.608C184.388 198.617 184.378 198.625 184.366 198.63C184.355 198.635 184.343 198.638 184.33 198.638C184.318 198.638 184.306 198.635 184.294 198.63C184.283 198.625 184.273 198.617 184.265 198.608C184.224 198.553 184.205 198.484 184.212 198.415V192.752C184.211 192.661 184.229 192.572 184.265 192.489C184.286 192.417 184.333 192.355 184.396 192.314L184.913 192.016C184.921 192.007 184.931 192 184.943 191.995C184.954 191.989 184.966 191.987 184.979 191.987C184.991 191.987 185.004 191.989 185.015 191.995C185.026 192 185.036 192.007 185.045 192.016C185.084 192.076 185.102 192.147 185.097 192.218V192.489C185.212 192.222 185.353 191.967 185.518 191.728C185.662 191.506 185.858 191.323 186.088 191.194C186.287 191.048 186.535 190.985 186.78 191.018C186.877 191.043 186.968 191.087 187.046 191.149C187.125 191.211 187.189 191.289 187.236 191.377C187.363 191.614 187.446 191.872 187.481 192.139C187.528 192.487 187.551 192.838 187.551 193.189V196.437Z" fill="#FAFAFA"/>
<path d="M231.759 170.955L223.249 175.857L224.572 163.934C223.547 163.391 222.898 162.069 222.898 160.17C222.898 156.782 224.967 152.852 227.508 151.416C230.05 149.98 232.11 151.504 232.11 154.918C232.057 156.926 231.483 158.887 230.445 160.608L231.759 170.955Z" fill="#455A64"/>
<path d="M231.768 170.955L224.274 166.639L223.249 175.866L231.768 170.955Z" fill="#37474F"/>
<path d="M227.491 151.39C225.637 152.64 224.255 154.474 223.564 156.598L230.427 160.555C231.466 158.834 232.04 156.874 232.092 154.865C232.11 151.477 230.05 149.928 227.491 151.39Z" fill="#37474F"/>
<path d="M186.123 111.691C183.204 110.01 179.181 110.246 174.729 112.811C165.842 117.941 158.637 130.398 158.637 140.649C158.637 145.796 160.46 149.403 163.387 151.066L169.058 154.357C171.968 156.038 175.991 155.793 180.452 153.228C189.339 148.107 196.544 135.641 196.544 125.391C196.544 120.27 194.738 116.637 191.828 115" fill="#3A49CD"/>
<path d="M180.443 116.112C171.556 121.241 164.352 133.707 164.352 143.949C164.352 154.191 171.556 158.358 180.443 153.228C189.33 148.098 196.543 135.641 196.535 125.391C196.526 115.14 189.322 110.99 180.443 116.112Z" fill="#3A49CD"/>
<path d="M189.322 138.854V140.027C187.193 143.823 184.139 147.021 180.443 149.324C176.981 151.311 173.852 151.53 171.556 150.26V147.844C171.674 145.331 172.392 142.882 173.652 140.702C174.911 138.523 176.675 136.677 178.795 135.318L181.136 133.969C183.204 132.779 185.22 132.621 186.797 133.541C188.375 134.46 189.322 136.394 189.322 138.854Z" fill="#3A49CD"/>
<path opacity="0.4" d="M186.123 111.691L191.819 115C188.91 113.31 184.887 113.547 180.426 116.111C174.606 119.473 169.505 125.977 166.683 132.945L160.977 129.645C163.808 122.642 168.865 116.173 174.72 112.811C179.19 110.255 183.213 110.01 186.123 111.691Z" fill="white"/>
<path opacity="0.2" d="M168.857 154.226L163.396 151.066C160.469 149.403 158.646 145.813 158.646 140.649L164.352 143.958C164.387 148.947 166.069 152.501 168.857 154.226Z" fill="black"/>
<path opacity="0.1" d="M160.995 129.645L166.7 132.945C165.239 136.434 164.453 140.168 164.387 143.949L158.681 140.64C158.751 136.862 159.536 133.131 160.995 129.645Z" fill="black"/>
<path d="M178.41 133.418C177.866 133.424 177.331 133.285 176.858 133.015C176.289 132.636 175.834 132.111 175.539 131.495C175.244 130.878 175.122 130.194 175.184 129.514C175.259 127.919 175.715 126.365 176.514 124.982C177.313 123.599 178.432 122.427 179.777 121.565C180.318 121.134 180.976 120.876 181.665 120.825C182.355 120.774 183.044 120.931 183.642 121.277C184.241 121.624 184.721 122.142 185.019 122.765C185.318 123.388 185.421 124.086 185.316 124.769C185.24 126.364 184.784 127.917 183.985 129.3C183.186 130.682 182.068 131.854 180.724 132.718C180.028 133.151 179.23 133.393 178.41 133.418Z" fill="white"/>
<path d="M186.797 133.532C185.22 132.613 183.204 132.77 181.136 133.961L178.795 135.309C176.674 136.669 174.909 138.516 173.65 140.697C172.39 142.878 171.672 145.329 171.556 147.844V150.269C173.852 151.538 176.981 151.32 180.443 149.333C184.139 147.029 187.193 143.832 189.322 140.036V138.863C189.322 136.394 188.41 134.46 186.797 133.532Z" fill="white"/>
<path d="M366.978 284.974C366.978 284.974 368.143 274.749 373.236 266.81C378.328 258.87 385.322 253.924 391.851 253.407C398.381 252.891 403.657 258.896 396.672 263.037C389.686 267.177 377.276 271.362 371.562 286.769L366.978 284.974Z" fill="#3A49CD"/>
<path opacity="0.1" d="M366.978 284.974C366.978 284.974 368.143 274.749 373.236 266.81C378.328 258.87 385.322 253.924 391.851 253.407C398.381 252.891 403.657 258.896 396.672 263.037C389.686 267.177 377.276 271.362 371.562 286.769L366.978 284.974Z" fill="black"/>
<path d="M368.897 282.313H368.827C368.741 282.278 368.673 282.21 368.636 282.125C368.6 282.04 368.599 281.944 368.634 281.858C375.523 264.919 388.635 257.837 394.612 256.471C394.657 256.461 394.703 256.46 394.749 256.467C394.794 256.475 394.838 256.491 394.877 256.516C394.916 256.54 394.95 256.572 394.977 256.609C395.003 256.647 395.022 256.689 395.033 256.734C395.043 256.779 395.045 256.825 395.037 256.871C395.029 256.916 395.013 256.959 394.988 256.998C394.964 257.038 394.932 257.071 394.895 257.098C394.857 257.125 394.815 257.144 394.77 257.154C388.915 258.502 376.058 265.453 369.283 282.129C369.249 282.199 369.192 282.255 369.122 282.289C369.052 282.322 368.973 282.331 368.897 282.313Z" fill="white"/>
<path d="M403.762 282.514C403.175 283.845 401.72 284.545 400.37 285.088C399.021 285.63 397.548 286.217 396.812 287.478C395.34 290.016 397.759 293.605 396.181 296.065C395.81 296.56 395.342 296.975 394.805 297.285C394.269 297.595 393.676 297.794 393.061 297.868C392.053 298.052 391.027 298.052 390.011 298.14C389.524 298.133 389.038 298.095 388.556 298.026C387.14 297.71 385.659 297.867 384.34 298.472C382.316 299.61 381.711 302.158 380.466 304.127C379.706 305.287 378.704 306.269 377.528 307.006C376.353 307.744 375.032 308.219 373.656 308.399C372.78 308.513 371.027 308.679 370.15 308.163C370.082 308.129 370.017 308.088 369.958 308.04C369.826 307.9 369.668 307.717 369.598 307.62C369.594 307.6 369.594 307.579 369.598 307.559C369.239 306.237 369.826 304.872 369.852 303.506V303.261C369.791 301.676 369.747 300.101 369.712 298.525C369.636 295.607 369.607 292.689 369.625 289.771C369.625 287.88 369.414 285.814 370.221 284.037C371.097 282.076 373.306 282.033 374.138 280.116C374.471 279.345 374.647 278.531 374.971 277.752C375.472 276.619 376.275 275.646 377.292 274.937C378.309 274.229 379.501 273.813 380.738 273.734C384.586 273.541 388.03 276.649 391.878 276.36C392.868 276.281 393.841 275.975 394.822 275.8C397.934 275.213 401.536 276.097 403.289 278.732C403.674 279.275 403.918 279.904 404.001 280.564C404.083 281.224 404.001 281.894 403.762 282.514Z" fill="#3A49CD"/>
<path d="M369.213 301.493C369.13 301.468 369.06 301.412 369.017 301.337C368.975 301.262 368.963 301.173 368.985 301.09C374.296 281.184 395.278 278.33 400.213 278.662C400.256 278.665 400.299 278.675 400.338 278.694C400.377 278.713 400.412 278.74 400.44 278.773C400.469 278.805 400.491 278.843 400.504 278.885C400.518 278.926 400.523 278.969 400.519 279.013C400.51 279.098 400.469 279.176 400.404 279.232C400.339 279.287 400.254 279.315 400.169 279.31C395.357 278.969 374.813 281.779 369.616 301.265C369.591 301.348 369.536 301.418 369.46 301.46C369.385 301.503 369.296 301.514 369.213 301.493Z" fill="white"/>
<path d="M392.552 291.408C392.486 291.399 392.424 291.368 392.377 291.32C390.437 289.641 388.15 288.411 385.679 287.716C383.208 287.021 380.614 286.88 378.082 287.302C377.997 287.31 377.912 287.286 377.844 287.234C377.775 287.182 377.729 287.107 377.714 287.022C377.701 286.937 377.723 286.849 377.773 286.779C377.824 286.709 377.9 286.661 377.986 286.646C380.627 286.207 383.332 286.357 385.908 287.085C388.484 287.813 390.867 289.101 392.886 290.857C392.917 290.887 392.941 290.923 392.958 290.963C392.975 291.002 392.983 291.045 392.983 291.089C392.983 291.132 392.975 291.175 392.958 291.214C392.941 291.254 392.917 291.29 392.886 291.32C392.846 291.368 392.793 291.402 392.733 291.417C392.673 291.433 392.61 291.43 392.552 291.408Z" fill="white"/>
<path d="M318.747 44.5485L321.534 45.6165V39.4888C321.534 34.6216 325.417 33.4573 329.632 35.8909C333.857 38.3245 337.275 44.2334 337.275 49.1005V49.9759C337.862 49.7966 338.483 49.7523 339.09 49.8463C339.697 49.9403 340.275 50.1701 340.781 50.5187C342.381 51.5612 343.713 52.9663 344.668 54.6196C345.623 56.273 346.174 58.1281 346.276 60.0341V60.4368L350.167 62.6778C351.22 63.3642 352.096 64.2884 352.725 65.3758C353.354 66.4631 353.718 67.683 353.787 68.9368C353.787 71.2479 352.166 72.1845 350.167 71.029L318.747 52.8997C317.693 52.2149 316.817 51.2909 316.189 50.2031C315.562 49.1152 315.201 47.8945 315.136 46.6407C315.136 44.3384 316.74 43.4018 318.747 44.5485Z" fill="#E6E6E6"/>
<path d="M356.075 39.6989L361.132 42.6139C361.104 42.3932 361.089 42.171 361.088 41.9486V40.4867C361.088 37.8606 362.911 36.8276 365.172 38.1319C366.144 38.7261 366.975 39.5235 367.609 40.4692C367.977 37.1953 370.554 35.9785 373.674 37.773C375.457 38.9318 376.941 40.4938 378.007 42.3326C379.073 44.1713 379.69 46.235 379.809 48.3565V50.5449C379.831 51.4194 379.655 52.2874 379.292 53.0836L383.499 55.4996C384.154 55.9339 384.699 56.5158 385.089 57.1984C385.478 57.881 385.702 58.6454 385.742 59.4301C385.742 60.8745 384.726 61.461 383.472 60.7432L356.075 44.9862C355.412 44.555 354.861 43.9733 354.466 43.2887C354.072 42.604 353.845 41.8359 353.805 41.047C353.805 39.5676 354.821 38.981 356.075 39.6989Z" fill="#E6E6E6"/>
<path d="M336.495 172.557C332.814 178.772 329.273 184.173 326.784 186.764C322.06 188.953 310.964 192.332 306.625 192.892C305.863 192.989 305.092 192.808 304.452 192.384C302.743 191.264 301.419 191.08 299.623 190.458C298.212 189.977 297.616 189.303 297.353 189.583C297.081 189.901 296.945 190.312 296.972 190.729C297 191.146 297.19 191.536 297.502 191.815C298.176 192.455 298.923 193.013 299.728 193.478C297.803 193.955 295.796 193.991 293.856 193.583C290.096 192.594 288.325 194.397 290.867 198.477C291.743 199.93 295.354 202.267 302.611 201.637C305.2 201.497 307.779 201.205 310.333 200.762C317.292 199.273 325.031 197.838 329.79 196.385C331.56 195.689 333.145 194.592 334.418 193.181C342.42 184.068 345.075 177.573 348.581 171.672L348.283 162.043C342.604 161.851 339.571 167.357 336.495 172.557Z" fill="#FFA8A7"/>
<path d="M349.256 161.851C347.609 161.619 345.93 161.842 344.401 162.495C342.872 163.147 341.55 164.205 340.579 165.553C336.688 170.534 329.799 182.492 329.799 182.492C329.799 182.492 332.051 188.489 338.134 189.495L347.906 176.312C347.906 176.312 352.534 167.155 349.256 161.851Z" fill="#455A64"/>
<path d="M370.387 296.258H364.015V307.603H370.387V296.258Z" fill="#FFA8A7"/>
<path d="M348.301 295.654L341.938 295.881L341.613 283.871L348.301 283.643V295.654Z" fill="#FFA8A7"/>
<path d="M371.281 198.048C371.281 204.368 370.352 255.29 370.352 255.29C370.492 257.11 372.105 260.472 371.781 267.466C371.299 276.964 370.659 301.93 370.659 301.93C369.565 302.489 368.358 302.792 367.13 302.817C365.901 302.841 364.683 302.586 363.568 302.07C363.568 302.07 358.397 267.055 357.258 257.679C356.259 249.459 353.699 222.252 353.699 222.252L350.255 254.414C350.985 257.865 351.251 261.398 351.044 264.919C350.746 269.296 348.695 291.951 348.695 291.951C347.594 292.599 346.36 292.989 345.086 293.091C343.812 293.193 342.531 293.003 341.342 292.537C341.342 292.537 337.713 258.397 337.643 254.388C337.555 249.836 339.764 197.995 339.764 197.995L371.281 198.048Z" fill="#37474F"/>
<path d="M364.015 304.329V303.383C363.402 303.655 361.991 309.275 359.458 311.673C357.451 313.582 354.716 315.779 354.015 317.906C353.314 320.033 357.828 321.338 359.712 320.996C361.886 320.593 365.672 318.991 366.618 317.495C367.565 315.998 368.012 313.827 368.783 312.741C369.554 311.656 371.334 310.448 371.746 309.187C371.874 308.008 371.752 306.814 371.386 305.686C371.088 304.513 370.773 303.226 370.387 303.34V304.057C369.489 304.794 368.359 305.191 367.197 305.178C366.268 305.257 364.007 305.064 364.015 304.329Z" fill="#263238"/>
<path d="M341.867 293.833C341.534 293.833 341.263 294.332 340.535 295.155C339.454 296.291 338.188 297.238 336.793 297.956C334.409 299.199 329.781 301.107 327.669 302.097C326.354 302.709 326.416 304.355 327.774 305.292C329.133 306.228 332.402 306.902 336.328 305.992C338.467 305.493 341.254 303.436 343.024 303.55C344.795 303.664 348.081 303.629 349.387 302.674C350.693 301.72 350.167 299.742 349.799 298.035C349.396 296.161 348.923 293.246 348.301 293.378V294.034C347.538 295.242 343.585 295.732 341.902 294.848L341.867 293.833Z" fill="#263238"/>
<path d="M353.699 222.252C350.385 221.169 347.355 219.359 344.83 216.956C344.83 216.956 346.583 220.292 351.631 223.399L350.544 252.121L353.699 222.252Z" fill="#263238"/>
<path d="M367.723 162.778C367.723 162.778 372.981 163.986 372.604 173.476L371.509 188.576V211.249C366.829 216.554 346.092 216.168 338.949 210.829C338.949 210.829 339.755 183.998 340.237 173.668C340.579 166.333 342.271 162.638 349.493 161.833L358.371 162.218L367.723 162.778Z" fill="#3A49CD"/>
<path d="M361.027 143.065C361.057 144.335 360.835 145.599 360.374 146.783C359.913 147.968 359.222 149.049 358.34 149.965C357.458 150.882 356.404 151.615 355.238 152.122C354.071 152.629 352.816 152.901 351.543 152.922C346.285 152.922 343.2 148.387 342.06 143.065C339.957 133.322 346.302 133.199 351.543 133.199C354.111 133.252 356.552 134.321 358.33 136.171C360.108 138.021 361.078 140.501 361.027 143.065Z" fill="#263238"/>
<path d="M365.865 147.048C365.865 147.048 364.41 154.156 363.822 155.329C363.453 156.035 362.825 156.571 362.07 156.826L362.175 151.827L365.865 147.048Z" fill="#263238"/>
<path d="M364.033 136.867C364.033 136.867 365.076 136.604 366.189 138.338C367.135 139.817 367.355 143.144 365.865 147.092L363.121 147.424L364.033 136.867Z" fill="#263238"/>
<path d="M365.041 138.311L368.406 138.373C368.429 138.155 368.407 137.936 368.341 137.727C368.275 137.519 368.167 137.327 368.023 137.162C367.879 136.998 367.702 136.865 367.504 136.772C367.306 136.679 367.091 136.628 366.872 136.622C366.412 136.628 365.971 136.805 365.633 137.116C365.295 137.428 365.084 137.854 365.041 138.311Z" fill="#263238"/>
<path d="M365.453 137.515L367.942 135.125C367.798 134.956 367.621 134.819 367.422 134.721C367.223 134.624 367.006 134.569 366.784 134.56C366.563 134.551 366.341 134.588 366.135 134.669C365.928 134.749 365.741 134.872 365.584 135.029C365.254 135.351 365.057 135.786 365.033 136.246C365.009 136.707 365.158 137.159 365.453 137.515Z" fill="#263238"/>
<path d="M362.297 147.38C362.85 147.722 363.63 146.627 364.313 145.883C364.997 145.139 367.118 144.457 368.222 146.873C369.327 149.289 367.442 151.678 365.865 152.466C363.034 153.867 362.14 151.827 362.14 151.827L361.903 163.085C357.924 169.213 348.897 169.02 352.148 162.787V159.364C350.811 159.587 349.452 159.657 348.099 159.574C345.89 159.224 344.506 157.412 343.831 154.926C342.761 150.934 342.349 147.713 343.261 139.861C344.26 131.264 353.884 131.168 359.037 134.608C364.191 138.049 362.297 147.38 362.297 147.38Z" fill="#FFA8A7"/>
<path d="M350.308 138.521C352.604 138.294 354.874 137.821 357.179 137.646C357.676 137.586 358.18 137.61 358.669 137.716C360.422 138.198 360.211 140.246 360.492 141.673C360.974 144.141 361.368 148.317 362.297 148.335C362.578 148.335 363.63 146.522 364.313 145.875C364.689 145.317 364.902 144.665 364.927 143.993C365.102 142.977 365.19 141.935 365.269 140.902C365.339 140.027 365.426 139.152 365.426 138.276C365.466 137.287 365.387 136.297 365.19 135.326C364.97 134.501 364.548 133.743 363.963 133.12L363.787 132.928C362.632 131.721 361.23 130.778 359.677 130.161C357.442 129.325 355.098 128.815 352.718 128.647C350.341 128.479 347.974 128.187 345.627 127.772C345.493 127.733 345.35 127.733 345.215 127.772C345.12 127.824 345.04 127.9 344.982 127.992C344.924 128.084 344.889 128.188 344.882 128.297C344.786 128.841 344.846 129.401 345.056 129.912C345.265 130.423 345.615 130.865 346.066 131.186C344.479 131.308 342.656 130.485 341.131 130.065C341.008 130.013 340.875 129.986 340.741 129.986C340.607 129.986 340.475 130.013 340.351 130.065C340.198 130.172 340.089 130.331 340.044 130.512C339.933 130.923 339.918 131.354 340.001 131.772C340.14 133.039 340.612 134.247 341.368 135.274C342.549 136.81 344.218 137.899 346.101 138.364C347.487 138.631 348.906 138.684 350.308 138.521Z" fill="#263238"/>
<path d="M352.157 159.365C352.157 159.365 357.083 158.332 358.8 157.377C359.824 156.818 360.654 155.964 361.184 154.926C360.926 155.969 360.464 156.95 359.826 157.815C358.573 159.496 352.157 160.721 352.157 160.721V159.365Z" fill="#F28F8F"/>
<path d="M353.34 146.094C353.331 146.364 353.428 146.627 353.612 146.825C353.796 147.024 354.051 147.141 354.322 147.153C354.536 147.17 354.751 147.123 354.939 147.016C355.126 146.91 355.276 146.749 355.371 146.556C355.465 146.362 355.499 146.145 355.467 145.932C355.436 145.719 355.34 145.521 355.194 145.363C355.048 145.205 354.857 145.095 354.647 145.047C354.437 144.999 354.217 145.016 354.017 145.095C353.817 145.174 353.645 145.311 353.524 145.49C353.403 145.668 353.339 145.878 353.34 146.094Z" fill="#263238"/>
<path d="M354.918 141.848L357.03 143.065C357.184 142.765 357.219 142.418 357.128 142.093C357.037 141.769 356.827 141.491 356.539 141.314C356.399 141.235 356.244 141.187 356.084 141.172C355.925 141.156 355.763 141.174 355.611 141.224C355.458 141.274 355.318 141.356 355.199 141.463C355.079 141.571 354.984 141.702 354.918 141.848Z" fill="#263238"/>
<path d="M352.595 153.193L350.343 154.068C350.388 154.223 350.465 154.366 350.568 154.49C350.671 154.613 350.798 154.714 350.942 154.786C351.086 154.859 351.243 154.9 351.404 154.91C351.565 154.919 351.725 154.894 351.876 154.839C352.183 154.707 352.428 154.463 352.561 154.158C352.695 153.852 352.707 153.507 352.595 153.193Z" fill="#F28F8F"/>
<path d="M344.278 142.749L346.206 141.209C346.119 141.074 346.006 140.96 345.872 140.872C345.738 140.784 345.587 140.726 345.429 140.7C345.272 140.675 345.11 140.682 344.955 140.723C344.801 140.764 344.656 140.837 344.532 140.937C344.274 141.156 344.106 141.461 344.059 141.795C344.012 142.129 344.09 142.469 344.278 142.749Z" fill="#263238"/>
<path d="M345.128 145.805C345.143 145.996 345.214 146.179 345.332 146.331C345.449 146.483 345.609 146.598 345.791 146.661C345.972 146.723 346.169 146.732 346.355 146.686C346.542 146.639 346.711 146.539 346.842 146.398C346.972 146.257 347.059 146.081 347.091 145.892C347.124 145.702 347.1 145.508 347.023 145.331C346.947 145.155 346.82 145.005 346.659 144.899C346.499 144.794 346.311 144.737 346.118 144.737C345.983 144.741 345.85 144.772 345.726 144.829C345.603 144.885 345.492 144.965 345.4 145.064C345.308 145.164 345.236 145.28 345.19 145.407C345.143 145.534 345.122 145.669 345.128 145.805Z" fill="#263238"/>
<path d="M350.413 144.982L350.299 151.215L346.758 150.4L350.413 144.982Z" fill="#F28F8F"/>
<path d="M266.326 197.111L271.822 193.942L273.995 191.307L268.509 194.476L266.326 197.111Z" fill="#3A49CD"/>
<path opacity="0.4" d="M266.326 197.111L271.822 193.942L273.995 191.307L268.509 194.476L266.326 197.111Z" fill="black"/>
<path d="M281.27 205.725L286.765 202.556L291.349 198.503L285.862 201.672L281.27 205.725Z" fill="#3A49CD"/>
<path opacity="0.4" d="M281.27 205.725L286.765 202.556L291.349 198.503L285.862 201.672L281.27 205.725Z" fill="black"/>
<path d="M327.949 216.659C329.249 218.398 330.035 220.466 330.219 222.629C328.926 220.886 328.14 218.82 327.949 216.659ZM340.719 216.825C338.87 204.263 332.113 191.841 324.067 187.193C320.202 184.961 316.626 184.882 313.76 186.554L308.589 189.53L308.299 189.705C308.069 189.832 307.847 189.972 307.633 190.126C307.209 190.418 306.81 190.746 306.441 191.106L306.266 191.272C306.108 191.43 305.942 191.614 305.793 191.789C305.644 191.964 305.416 192.235 305.241 192.472C304.869 192.961 304.532 193.476 304.233 194.012C304.075 194.284 303.926 194.573 303.786 194.888L258.622 168.854L253.136 172.014V175.515L253.6 175.778L254.039 176.032V176.732L253.162 177.249V179.28L259.797 193.286L266.353 197.076L268.535 194.45L274.32 197.908L277.641 203.589L281.305 205.699L285.889 201.637L291.515 204.885L293.409 212.684L302.865 218.147C303.333 220.132 303.918 222.087 304.618 224.003C304.68 224.196 304.759 224.397 304.837 224.616C307.975 232.845 312.962 239.891 318.589 243.139C319.263 243.539 319.97 243.881 320.701 244.163C321.088 244.317 321.483 244.448 321.884 244.557C322.235 244.651 322.586 244.729 322.936 244.794C324.043 244.995 325.177 244.995 326.284 244.794L326.74 244.68C326.958 244.636 327.172 244.574 327.38 244.496L327.871 244.303C328.044 244.241 328.212 244.162 328.37 244.067C328.532 243.997 328.69 243.918 328.843 243.831L329.071 243.691C329.113 243.677 329.151 243.656 329.185 243.629C330.439 242.912 333.524 241.126 334.365 240.653C338.537 238.237 341.236 232.127 341.236 223.487C341.229 221.256 341.057 219.03 340.719 216.825Z" fill="#3A49CD"/>
<path d="M326.346 227.26C324.172 226.008 322.419 222.296 322.419 218.97C322.419 215.643 324.172 213.954 326.346 215.197C328.519 216.44 330.263 220.16 330.263 223.495C330.263 226.831 328.51 228.511 326.346 227.26ZM335.224 219.985C333.383 207.432 326.626 195.002 318.571 190.362C314.838 188.208 311.385 188.051 308.58 189.53L308.291 189.705C308.06 189.832 307.838 189.972 307.625 190.126C307.2 190.418 306.801 190.746 306.433 191.106L306.257 191.272C306.1 191.43 305.933 191.614 305.784 191.789C305.635 191.964 305.407 192.235 305.232 192.472C304.86 192.961 304.523 193.476 304.224 194.012C304.066 194.284 303.917 194.573 303.777 194.888C302.96 196.58 302.37 198.372 302.024 200.219L253.127 172.014V175.515L253.592 175.778L254.03 176.032V176.732L253.153 177.249V179.28L259.788 193.286L266.344 197.076L268.526 194.45L274.311 197.908L277.633 203.589L281.296 205.699L285.88 201.637L291.507 204.885L293.4 212.684L302.865 218.147C303.333 220.132 303.918 222.087 304.618 224.003C304.68 224.196 304.759 224.397 304.837 224.616C307.975 232.845 312.962 239.891 318.589 243.139C319.263 243.539 319.97 243.881 320.701 244.163C321.088 244.317 321.483 244.448 321.884 244.557C322.235 244.651 322.586 244.729 322.936 244.794C324.043 244.995 325.177 244.995 326.284 244.794L326.74 244.68C326.958 244.636 327.172 244.574 327.38 244.496L327.871 244.303C328.044 244.241 328.212 244.162 328.37 244.067C328.532 243.997 328.69 243.918 328.843 243.831L329.071 243.691C329.113 243.677 329.151 243.656 329.185 243.629C333.182 241.108 335.75 235.086 335.75 226.656C335.735 224.422 335.559 222.193 335.224 219.985Z" fill="#3A49CD"/>
<path opacity="0.4" d="M330.263 223.487C330.263 226.822 328.51 228.511 326.346 227.26C324.181 226.008 322.419 222.305 322.419 218.97C322.419 215.634 324.172 213.945 326.346 215.197C326.972 215.577 327.516 216.077 327.949 216.667C328.138 218.829 328.924 220.896 330.219 222.638C330.252 222.919 330.266 223.203 330.263 223.487Z" fill="black"/>
<path opacity="0.4" d="M341.219 223.478C341.219 232.118 338.519 238.228 334.347 240.644C333.471 241.117 330.421 242.903 329.168 243.621C333.164 241.099 335.732 235.077 335.732 226.647C335.723 224.417 335.553 222.191 335.224 219.985C333.383 207.432 326.626 195.001 318.571 190.362C314.838 188.208 311.385 188.051 308.58 189.53L313.751 186.554C316.617 184.882 320.193 184.961 324.058 187.193C332.113 191.841 338.87 204.263 340.71 216.825C341.044 219.027 341.214 221.251 341.219 223.478Z" fill="white"/>
<path d="M335.732 226.629C335.732 235.059 333.164 241.082 329.168 243.603C330.421 242.885 333.506 241.099 334.348 240.627C338.519 238.211 341.219 232.1 341.219 223.46C341.219 223.145 341.219 222.821 341.219 222.497L335.732 225.666C335.724 226.008 335.732 226.323 335.732 226.629Z" fill="#3A49CD"/>
<path opacity="0.1" d="M335.732 226.629C335.732 235.059 333.164 241.082 329.168 243.603C330.421 242.885 333.506 241.099 334.348 240.627C338.519 238.211 341.219 232.1 341.219 223.46C341.219 223.145 341.219 222.821 341.219 222.497L335.732 225.666C335.724 226.008 335.732 226.323 335.732 226.629Z" fill="black"/>
<path opacity="0.15" d="M302.234 203.799V205.585L253.136 177.266L254.039 176.75V176.006L302.234 203.799Z" fill="black"/>
<path opacity="0.15" d="M302.234 204.534V205.585L253.136 177.266L254.039 176.75V176.741L302.234 204.534Z" fill="black"/>
<path opacity="0.15" d="M325.683 239.934C332.528 237.836 334.889 225.764 330.958 212.971C327.028 200.177 318.293 191.507 311.449 193.604C304.605 195.702 302.243 207.774 306.174 220.567C310.105 233.361 318.839 242.031 325.683 239.934Z" stroke="black" stroke-miterlimit="10"/>
<path opacity="0.4" d="M303.742 194.87C302.925 196.562 302.335 198.355 301.989 200.201L253.092 171.996L258.579 168.836L303.742 194.87Z" fill="white"/>
<path d="M367.293 197.61C369.852 192.769 372.78 181.897 374.235 176.408C376.303 168.617 372.955 163.715 369.151 163.514C366.776 163.881 358.949 192.305 358.949 192.305C358.073 192.997 346.18 199.028 342.358 200.543C341.675 200.801 340.921 200.801 340.237 200.543C338.405 199.877 337.152 200 335.355 199.825C333.944 199.685 333.234 199.186 333.05 199.484C332.883 199.853 332.862 200.272 332.99 200.656C333.118 201.041 333.387 201.363 333.743 201.558C334.516 202.008 335.34 202.367 336.197 202.626C334.661 203.092 333.06 203.307 331.455 203.265C327.774 203.186 326.451 204.78 329.308 208.518C331.061 210.846 333.962 211.581 340.439 209.349C342.297 208.701 344.821 207.45 347.179 206.6C352.034 204.85 353.314 204.64 357.012 203.388C362.403 201.567 366.154 199.764 367.293 197.61Z" fill="#FFA8A7"/>
<path d="M367.723 162.778C369.958 163.085 372.105 163.584 373.428 165.405C374.752 167.225 375.812 169.782 374.515 176.741C373.522 181.635 372.192 186.455 370.536 191.167C370.536 191.167 365.33 193.391 359.8 187.753L363.603 173.064C363.603 173.064 364.217 163.514 367.723 162.778Z" fill="#455A64"/>
</g>
<defs>
<clipPath id="clip0">
<rect width="413" height="400" fill="white"/>
</clipPath>
</defs>
</svg>
